<?xml version="1.0" ?><!DOCTYPE svg  PUBLIC '-//W3C//DTD SVG 1.1//EN'  'http://www.w3.org/Graphics/SVG/1.1/DTD/svg11.dtd'><svg height="8.4666mm" style="shape-rendering:geometricPrecision; text-rendering:geometricPrecision; image-rendering:optimizeQuality; fill-rule:evenodd; clip-rule:evenodd" version="1.1" viewBox="0 0 846.66 846.66" width="8.4666mm" xml:space="preserve" xmlns="http://www.w3.org/2000/svg" xmlns:xlink="http://www.w3.org/1999/xlink"><defs><style type="text/css">
   <![CDATA[
    .fil0 {fill:black;fill-rule:nonzero}
   ]]>
  </style></defs><g id="Layer_x0020_1"><path class="fil0" d="M445.92 400.8l0 334.84c0,11.41 -9.26,20.67 -20.67,20.67l-17.89 0 0 39.31 94.77 0 0 -231.38c0,-11.42 9.25,-20.67 20.67,-20.67l100.17 0 0 -193.4c0,-27.2 41.36,-27.2 41.36,0l0 214.07c0,11.42 -9.26,20.68 -20.68,20.68l-100.17 0 0 231.38c0,11.42 -9.26,20.67 -20.68,20.67l-136.11 0c-11.42,0 -20.68,-9.25 -20.68,-20.67l0 -59.99 -17.88 0c-11.42,0 -20.68,-9.26 -20.68,-20.67l0 -334.84 -19.28 0c-3.7,0 -7.18,-0.97 -10.18,-2.67 -70.63,-34.11 -115.66,-105.63 -115.66,-184.09 0,-112.86 91.5,-204.35 204.36,-204.35 112.86,0 204.35,91.49 204.35,204.35 0,79 -45.65,150.94 -117.03,184.75 -2.85,1.34 -5.85,1.97 -8.8,1.97l-19.29 0.04zm-142.96 -219.76c-27.2,0 -27.2,-41.35 0,-41.35l167.46 0c27.2,0 27.2,41.35 0,41.35l-167.46 0zm0 89.77c-27.2,0 -27.2,-41.35 0,-41.35l167.46 0c27.2,0 27.2,41.35 0,41.35l-167.46 0zm101.61 129.99l-35.77 0 0 314.16 35.77 0 0 -314.16zm-91.71 -41.35c49.22,0 98.44,0 147.65,0 54.84,-27.89 89.18,-83.87 89.18,-145.41 0,-90.02 -72.98,-163 -163,-163 -90.02,0 -163,72.98 -163,163 0,61.54 34.33,117.52 89.17,145.41z"/></g></svg>